# xmcd
#
# Track frame offsets:
# 150
# 7316
# 14290
# 21142
#
# Disc length: 374 seconds
#
# Revision: 0
# Processed by: cddbd v1.4PL0 Copyright (c) Steve Scherf et al.
# Submitted via: Audion 3.0.2 (http://www.panic.com/audion/)
#
DISCID=27017404
DTITLE=jwalk - a night on the rocks-album sampler
DYEAR=1900
DGENRE=
TTITLE0=soul vibration
TTITLE1=scarlet menace
TTITLE2=heavens above
TTITLE3=another lover
EXTD=
EXTT0=
EXTT1=
EXTT2=
EXTT3=
PLAYORDER=
